<svg width="39" height="74" viewBox="0 0 39 74" fill="none" xmlns="http://www.w3.org/2000/svg">
<path d="M14.4198 67.7283C13.7997 67.2853 13.1797 66.8423 12.581 66.3016C25.5571 64.1326 35.8498 54.1091 38.3161 40.5271C40.9629 25.6544 33.7118 7.79225 20.2282 0.127729C19.5103 -0.336711 18.3521 0.739704 19.0057 1.49707C27.7866 11.9169 35.8188 22.4795 33.9419 37.1118C32.457 48.5551 23.5571 59.7028 11.892 61.0336C13.1694 59.881 14.3704 58.6093 15.6478 57.4566C18.765 54.456 13.8015 49.9903 10.8035 52.9148L1.59266 61.7428C0.413019 62.9169 0.366485 65.4651 1.78076 66.4917C4.51156 68.5233 7.22094 70.6525 9.95174 72.6841C13.2384 75.4517 17.9234 70.4411 14.4198 67.7283Z" fill="#00031A"/>
</svg>
