<svg width="56" height="56" viewBox="0 0 56 56" fill="none" xmlns="http://www.w3.org/2000/svg">
<rect width="56" height="56" rx="28" fill="#F8F8FA"/>
<path d="M18.6667 16.8333H24L26.6667 23.5L23.3333 25.5C24.7613 28.3954 27.1046 30.7387 30 32.1666L32 28.8333L38.6667 31.5V36.8333C38.6667 37.5406 38.3857 38.2188 37.8856 38.7189C37.3855 39.219 36.7072 39.5 36 39.5C30.799 39.1839 25.8935 36.9753 22.2091 33.2909C18.5247 29.6064 16.3161 24.701 16 19.5C16 18.7927 16.281 18.1145 16.781 17.6144C17.2811 17.1143 17.9594 16.8333 18.6667 16.8333Z" stroke="#00031A" stroke-width="1.5" stroke-linecap="round" stroke-linejoin="round"/>
<path d="M32 23.5L38.6667 16.8333" stroke="#00031A" stroke-width="1.5" stroke-linecap="round" stroke-linejoin="round"/>
<path d="M33.334 16.8333H38.6673V22.1666" stroke="#00031A" stroke-width="1.5" stroke-linecap="round" stroke-linejoin="round"/>
</svg>
