<svg width="22" height="17" viewBox="0 0 22 17" fill="none" xmlns="http://www.w3.org/2000/svg">
<path d="M10.999 6.24998V13M10.999 13L7.99903 9.99998M10.999 13L13.999 9.99998M5.74903 16C4.67847 16.0011 3.64255 15.6206 2.82733 14.9267C2.01211 14.2327 1.47099 13.2709 1.30114 12.2139C1.1313 11.1569 1.34386 10.074 1.90065 9.15958C2.45745 8.24519 3.32199 7.55927 4.33903 7.22498C4.07773 5.88615 4.34779 4.49818 5.09202 3.355C5.83624 2.21181 6.9962 1.40318 8.32625 1.10033C9.6563 0.79749 11.052 1.02422 12.2178 1.7325C13.3836 2.44078 14.2279 3.57501 14.572 4.89498C15.104 4.72196 15.6738 4.70114 16.2171 4.83488C16.7603 4.96862 17.2553 5.25159 17.6461 5.65182C18.037 6.05206 18.3082 6.55362 18.429 7.09985C18.5499 7.64608 18.5156 8.21522 18.33 8.74298C19.1487 9.05569 19.8321 9.64508 20.2616 10.4089C20.6911 11.1728 20.8398 12.0629 20.6817 12.9249C20.5236 13.7868 20.0687 14.5662 19.3961 15.1279C18.7234 15.6896 17.8754 15.9982 16.999 16H5.74903Z" stroke="#00031A" stroke-width="1.5" stroke-linecap="round" stroke-linejoin="round"/>
</svg>
