<svg width="83" height="50" viewBox="0 0 83 50" fill="none" xmlns="http://www.w3.org/2000/svg">
<path d="M5.60395 14.6977C7.18073 14.6977 8.55864 15.0102 9.73767 15.6352C10.9167 16.2602 11.8258 17.141 12.4651 18.2774C13.1185 19.3996 13.4452 20.6994 13.4452 22.1767C13.4452 23.6398 13.1185 24.9396 12.4651 26.076C11.8258 27.2124 10.9096 28.0932 9.71636 28.7182C8.53733 29.3432 7.16653 29.6557 5.60395 29.6557H0V14.6977H5.60395ZM5.36957 26.5022C6.74747 26.5022 7.81997 26.1258 8.58705 25.3729C9.35413 24.62 9.73767 23.5546 9.73767 22.1767C9.73767 20.7988 9.35413 19.7263 8.58705 18.9592C7.81997 18.1921 6.74747 17.8086 5.36957 17.8086H3.64364V26.5022H5.36957Z" fill="black"/>
<path d="M13.9047 23.6896C13.9047 22.4679 14.132 21.3954 14.5865 20.4721C15.0553 19.5487 15.6874 18.8385 16.4829 18.3413C17.2784 17.8441 18.1662 17.5955 19.1464 17.5955C19.9845 17.5955 20.7161 17.766 21.3411 18.1069C21.9803 18.4478 22.4704 18.8953 22.8113 19.4493V17.766H26.455V29.6557H22.8113V27.9724C22.4562 28.5264 21.959 28.9739 21.3198 29.3148C20.6948 29.6557 19.9632 29.8262 19.1251 29.8262C18.1591 29.8262 17.2784 29.5776 16.4829 29.0804C15.6874 28.569 15.0553 27.8517 14.5865 26.9283C14.132 25.9908 13.9047 24.9112 13.9047 23.6896ZM22.8113 23.7109C22.8113 22.8017 22.5556 22.0844 22.0443 21.5588C21.5471 21.0332 20.9363 20.7704 20.2118 20.7704C19.4873 20.7704 18.8694 21.0332 18.358 21.5588C17.8608 22.0702 17.6122 22.7804 17.6122 23.6896C17.6122 24.5987 17.8608 25.3232 18.358 25.863C18.8694 26.3885 19.4873 26.6513 20.2118 26.6513C20.9363 26.6513 21.5471 26.3885 22.0443 25.863C22.5556 25.3374 22.8113 24.62 22.8113 23.7109Z" fill="black"/>
<path d="M33.0755 29.8262C32.0386 29.8262 31.1152 29.6486 30.3055 29.2935C29.4958 28.9384 28.8566 28.4554 28.3878 27.8446C27.9191 27.2196 27.6563 26.5235 27.5994 25.7564H31.2005C31.2431 26.1684 31.4348 26.5022 31.7758 26.7579C32.1167 27.0136 32.5357 27.1414 33.0329 27.1414C33.4875 27.1414 33.8355 27.0562 34.077 26.8857C34.3327 26.7011 34.4606 26.4667 34.4606 26.1826C34.4606 25.8416 34.283 25.5931 33.9279 25.4368C33.5727 25.2663 32.9974 25.0817 32.2019 24.8828C31.3496 24.6839 30.6394 24.4779 30.0711 24.2649C29.5029 24.0376 29.0129 23.6896 28.6009 23.2208C28.189 22.7378 27.983 22.0915 27.983 21.2818C27.983 20.5999 28.1676 19.982 28.537 19.428C28.9205 18.8598 29.4745 18.4123 30.199 18.0856C30.9377 17.7589 31.8113 17.5955 32.8199 17.5955C34.3114 17.5955 35.4833 17.9649 36.3356 18.7035C37.2022 19.4422 37.6993 20.4224 37.8272 21.644H34.4606C34.4037 21.2321 34.2191 20.9053 33.9066 20.6638C33.6082 20.4224 33.2105 20.3016 32.7133 20.3016C32.2872 20.3016 31.9604 20.3868 31.7332 20.5573C31.5059 20.7136 31.3922 20.9337 31.3922 21.2179C31.3922 21.5588 31.5698 21.8145 31.9249 21.9849C32.2943 22.1554 32.8625 22.3259 33.6296 22.4963C34.5103 22.7236 35.2276 22.9509 35.7816 23.1782C36.3356 23.3912 36.8186 23.7464 37.2306 24.2436C37.6567 24.7265 37.8769 25.38 37.8911 26.2039C37.8911 26.8999 37.6922 27.525 37.2945 28.079C36.9109 28.6188 36.3498 29.0449 35.6112 29.3574C34.8867 29.6699 34.0415 29.8262 33.0755 29.8262Z" fill="black"/>
<path d="M44.1048 29.8262C43.0679 29.8262 42.1445 29.6486 41.3348 29.2935C40.5251 28.9384 39.8859 28.4554 39.4171 27.8446C38.9483 27.2196 38.6855 26.5235 38.6287 25.7564H42.2297C42.2724 26.1684 42.4641 26.5022 42.8051 26.7579C43.146 27.0136 43.565 27.1414 44.0622 27.1414C44.5168 27.1414 44.8648 27.0562 45.1063 26.8857C45.362 26.7011 45.4898 26.4667 45.4898 26.1826C45.4898 25.8416 45.3123 25.5931 44.9571 25.4368C44.602 25.2663 44.0267 25.0817 43.2312 24.8828C42.3789 24.6839 41.6686 24.4779 41.1004 24.2649C40.5322 24.0376 40.0421 23.6896 39.6302 23.2208C39.2182 22.7378 39.0123 22.0915 39.0123 21.2818C39.0123 20.5999 39.1969 19.982 39.5663 19.428C39.9498 18.8598 40.5038 18.4123 41.2283 18.0856C41.967 17.7589 42.8406 17.5955 43.8491 17.5955C45.3407 17.5955 46.5126 17.9649 47.3649 18.7035C48.2314 19.4422 48.7286 20.4224 48.8565 21.644H45.4898C45.433 21.2321 45.2484 20.9053 44.9358 20.6638C44.6375 20.4224 44.2398 20.3016 43.7426 20.3016C43.3164 20.3016 42.9897 20.3868 42.7624 20.5573C42.5352 20.7136 42.4215 20.9337 42.4215 21.2179C42.4215 21.5588 42.5991 21.8145 42.9542 21.9849C43.3235 22.1554 43.8918 22.3259 44.6588 22.4963C45.5396 22.7236 46.2569 22.9509 46.8109 23.1782C47.3649 23.3912 47.8479 23.7464 48.2599 24.2436C48.686 24.7265 48.9062 25.38 48.9204 26.2039C48.9204 26.8999 48.7215 27.525 48.3238 28.079C47.9402 28.6188 47.3791 29.0449 46.6405 29.3574C45.916 29.6699 45.0708 29.8262 44.1048 29.8262Z" fill="black"/>
<path d="M62.4427 17.766L54.985 35.3023H51.0643L53.7917 29.2509L48.9549 17.766H53.0247L55.7734 25.2024L58.5008 17.766H62.4427Z" fill="black"/>
<path d="M68.3202 29.8262C67.1553 29.8262 66.1042 29.5776 65.1666 29.0804C64.2433 28.5833 63.5117 27.873 62.9719 26.9497C62.4463 26.0263 62.1835 24.9467 62.1835 23.7109C62.1835 22.4892 62.4534 21.4167 62.9932 20.4934C63.533 19.5558 64.2717 18.8385 65.2092 18.3413C66.1468 17.8441 67.198 17.5955 68.3628 17.5955C69.5276 17.5955 70.5788 17.8441 71.5163 18.3413C72.4539 18.8385 73.1926 19.5558 73.7323 20.4934C74.2721 21.4167 74.542 22.4892 74.542 23.7109C74.542 24.9325 74.265 26.0121 73.711 26.9497C73.1712 27.873 72.4255 28.5833 71.4737 29.0804C70.5362 29.5776 69.485 29.8262 68.3202 29.8262ZM68.3202 26.6727C69.0162 26.6727 69.6057 26.417 70.0887 25.9056C70.5859 25.3942 70.8345 24.6626 70.8345 23.7109C70.8345 22.7591 70.593 22.0275 70.11 21.5162C69.6413 21.0048 69.0588 20.7491 68.3628 20.7491C67.6525 20.7491 67.063 21.0048 66.5942 21.5162C66.1255 22.0133 65.8911 22.7449 65.8911 23.7109C65.8911 24.6626 66.1184 25.3942 66.5729 25.9056C67.0417 26.417 67.6241 26.6727 68.3202 26.6727Z" fill="black"/>
<path d="M79.2664 19.7476C79.6925 19.0942 80.2252 18.5828 80.8645 18.2135C81.5037 17.8299 82.214 17.6381 82.9952 17.6381V21.4949H81.9938C81.0847 21.4949 80.4028 21.6937 79.9482 22.0915C79.4937 22.475 79.2664 23.1569 79.2664 24.137V29.6557H75.6227V17.766H79.2664V19.7476Z" fill="black"/>
</svg>
