<svg width="36" height="36" viewBox="0 0 36 36" fill="none" xmlns="http://www.w3.org/2000/svg">
<path d="M19.7168 13.8785L19.726 13.8126C19.7233 13.8322 19.7198 13.8549 19.7168 13.8785Z" fill="#23AA49"/>
<path d="M31.8633 9.65298C31.8234 9.63698 31.7959 9.62766 31.7754 9.62225C31.759 9.61794 31.7516 9.61734 31.7507 9.61728C31.7507 9.61728 31.7507 9.61728 31.7507 9.61728L31.8633 9.65298ZM31.8633 9.65298V12.5485C31.6725 12.5481 31.4813 12.5476 31.2898 12.547C30.6006 12.545 29.908 12.5431 29.2168 12.5496L29.216 12.5496C28.9845 12.5521 28.7373 12.6098 28.5259 12.7164L28.5256 12.7165C26.976 13.4992 25.2872 13.7904 23.5441 13.7989C23.0504 13.8013 22.5466 13.7347 22.0168 13.6446C21.8465 13.6156 21.6701 13.5835 21.4903 13.5508C21.1277 13.4849 20.7516 13.4165 20.3852 13.3664L20.3843 13.3663C20.3696 13.3643 20.3516 13.3596 20.2832 13.3419L20.2804 13.3411L20.2796 13.3409C20.2259 13.327 20.1283 13.3016 20.0217 13.2948C19.907 13.2875 19.7548 13.2992 19.6005 13.3815C19.4446 13.4645 19.3359 13.5932 19.262 13.7335L19.2215 13.8105L19.2094 13.8966L19.2078 13.908C19.2058 13.9187 19.2039 13.9303 19.2023 13.9428L19.1924 14.0123C19.1902 14.0262 19.1885 14.0383 19.1876 14.0449L19.1876 14.0455L19.1862 14.0556L19.1859 14.058L19.1858 14.0587L19.1857 14.0587L19.1849 14.0642L19.1775 14.1148L19.1775 14.115C19.0815 14.7716 18.9206 15.8804 18.8465 16.392L18.8464 16.392L18.8456 16.3984C18.8416 16.4287 18.8381 16.4532 18.8345 16.4783C18.8324 16.4933 18.8302 16.5085 18.8279 16.5252C18.8278 16.5258 18.8278 16.5264 18.8277 16.5269L18.8245 16.5483L18.8206 16.5751L18.8191 16.5857L18.8182 16.5902L18.816 16.6063L18.8137 16.6235C18.7825 16.8419 18.7515 17.062 18.7188 17.2938C18.7091 17.3625 18.6993 17.4322 18.6892 17.5032L18.6152 18.0276L19.143 18.0714C19.3037 18.0847 19.4586 18.0965 19.61 18.1081C19.933 18.1327 20.2397 18.156 20.5503 18.1904C21.4118 18.2859 22.1997 18.4048 22.9215 18.7356C23.3536 18.934 23.4557 19.0104 23.5038 19.0875C23.5466 19.1559 23.5995 19.3203 23.5394 19.8865L23.5394 19.8865C23.3996 21.2046 22.902 22.4366 22.3568 23.7295C22.3103 23.839 22.2643 23.9481 22.1784 24.152L21.7848 25.0866L22.7658 24.8298C23.2144 24.7123 23.5991 24.6325 23.9424 24.6281L21.3474 25.7175L21.3138 25.5909L21.1975 25.6009C21.2481 25.2167 21.2975 24.8362 21.3398 24.4566C21.3398 24.4565 21.3398 24.4564 21.3398 24.4563L20.8429 24.401M31.8633 9.65298L6.35885 25.9781C7.93681 25.4092 9.51056 24.8321 11.0752 24.2349L11.0758 24.2347C11.3462 24.1319 11.6124 23.9775 11.8329 23.7943C12.5419 23.2047 13.2381 22.611 13.9371 22.0149C14.4311 21.5936 14.9265 21.1712 15.4288 20.7482C15.6072 20.5975 15.8617 20.4791 16.118 20.4591L16.1193 20.459C17.5105 20.3545 18.9024 20.26 20.2923 20.1657C20.5154 20.1505 20.7385 20.1354 20.9615 20.1202L20.962 20.1202C20.9649 20.12 20.9685 20.1197 20.9727 20.1194C21.0268 20.1152 21.1865 20.1029 21.3425 20.1532C21.3426 20.1532 21.3428 20.1533 21.3429 20.1533L21.1891 20.6291M20.8429 24.401C20.8844 24.0303 20.9227 23.6593 20.961 23.2884C21.0265 22.6547 21.092 22.0211 21.1734 21.3895M20.8429 24.401C20.797 24.8129 20.7429 25.2236 20.6874 25.6448L20.8429 24.401ZM21.1734 21.3895L21.6692 21.4537C21.6692 21.4536 21.6692 21.4535 21.6693 21.4534L21.1734 21.3895ZM21.1734 21.3895C21.1845 21.3039 21.2105 21.2202 21.2429 21.1393L21.3522 20.9028C21.3805 20.8451 21.4074 20.7896 21.4289 20.7367C21.4132 20.7295 21.3953 20.7204 21.3756 20.7105C21.3231 20.6841 21.2579 20.6513 21.1891 20.6291M21.1891 20.6291C21.1723 20.6236 21.1547 20.6201 21.1366 20.618L21.1891 20.6291ZM6.24857 24.7285C6.24843 24.7285 6.2483 24.7286 6.24816 24.7287L6.03415 24.2768L6.24897 24.7283C6.24884 24.7283 6.2487 24.7284 6.24857 24.7285ZM6.24857 24.7285C6.37562 24.6683 6.53932 24.5821 6.69507 24.4172M6.24857 24.7285L6.69507 24.4172M6.69507 24.4172L9.14014 23.3773L9.16386 23.3672L9.18641 23.3548C9.2401 23.3251 9.2934 23.2997 9.36169 23.2673C9.38157 23.2578 9.40271 23.2477 9.42551 23.2368L9.42937 23.2349V23.2787L10.1641 22.8881C10.4242 22.7498 10.8023 22.5258 10.9673 22.0251L11.1104 21.8364C11.3709 21.5659 11.5159 21.2173 11.6246 20.9561L11.6283 20.9471L11.633 20.936C11.7572 20.6374 11.8517 20.4101 12.0005 20.2232L12.0302 20.1858L12.0524 20.1434L12.5603 19.1717L12.5999 19.0959L12.6121 19.0113C12.6228 18.937 12.6345 18.8328 12.6304 18.722C12.6265 18.6187 12.6076 18.4575 12.5159 18.304L12.5156 18.3036C12.4292 18.1594 12.3395 18.018 12.2469 17.879L12.2463 17.878C12.089 17.6431 12.0227 17.3562 12.0577 17.0713C12.9742 15.7696 13.8818 14.461 14.7881 13.1544C14.912 12.9757 15.0359 12.7972 15.1597 12.6186L15.1612 12.6165C15.2095 12.546 15.2309 12.4784 15.2412 12.4346C15.2504 12.3955 15.2538 12.3617 15.2549 12.3504L15.255 12.3498C15.2564 12.3358 15.2569 12.329 15.2573 12.3249C15.2577 12.3196 15.2578 12.3187 15.2587 12.3131L15.309 11.9888L15.0315 11.8136C14.5342 11.4997 14.0247 11.1789 13.5155 10.8582L13.2491 11.2813M6.69507 24.4172L9.4372 23.231C9.43722 23.2311 9.44326 23.2281 9.46042 23.2197L9.54072 23.1808C9.607 23.1486 9.69474 23.1063 9.78256 23.0642C9.87076 23.0219 9.95752 22.9806 10.0225 22.9504C10.0554 22.9351 10.0799 22.924 10.0953 22.9172C10.1037 22.9135 10.1047 22.9132 10.1011 22.9146L10.101 22.9147C10.0997 22.9152 10.09 22.919 10.0762 22.9233C10.0699 22.9253 10.0529 22.9306 10.0304 22.9353C10.0192 22.9376 9.99893 22.9415 9.97318 22.9438C9.95369 22.9455 9.898 22.9498 9.82858 22.9355L9.92919 22.4466L9.92924 22.4464L9.92937 22.4466H10.4294V22.4466V22.4466V22.4466V22.4466V22.4466V22.4465V22.4465V22.4465V22.4465V22.4465V22.4465V22.4465V22.4465V22.4465V22.4465V22.4465V22.4464V22.4464V22.4464V22.4464V22.4464V22.4464V22.4464V22.4464V22.4464V22.4464V22.4464V22.4463V22.4463V22.4463V22.4463V22.4463V22.4463V22.4463V22.4463V22.4463V22.4463V22.4463V22.4463V22.4462V22.4462V22.4462V22.4462V22.4462V22.4462V22.4462V22.4462V22.4462V22.4462V22.4462V22.4462V22.4461V22.4461V22.4461V22.4461V22.4461V22.4461V22.4461V22.4461V22.4461V22.4461V22.4461V22.4461V22.446V22.446V22.446V22.446V22.446V22.446V22.446V22.446V22.446V22.446V22.446V22.446V22.4459V22.4459V22.4459V22.4459V22.4459V22.4459V22.4459V22.4459V22.4459V22.4459V22.4459V22.4459V22.4459V22.4458V22.4458V22.4458V22.4458V22.4458V22.4458V22.4458V22.4458V22.4458V22.4458V22.4458V22.4458V22.4458V22.4457V22.4457V22.0382L10.417 22.0356C10.4575 21.9672 10.4904 21.8884 10.5132 21.7965L10.7316 21.5084C10.9385 21.3046 11.0582 21.0164 11.1834 20.7149C11.2974 20.4403 11.416 20.1547 11.6093 19.9118L12.1172 18.9401C12.1351 18.8159 12.1456 18.659 12.0867 18.5605C12.0047 18.4237 11.9193 18.2891 11.8308 18.1562C11.5796 17.781 11.4933 17.3191 11.5831 16.8768C12.5209 15.5459 13.4492 14.2075 14.3772 12.8695C14.5011 12.6909 14.625 12.5122 14.7489 12.3336C14.7553 12.3243 14.7565 12.3111 14.7584 12.2894C14.7597 12.2755 14.7612 12.2583 14.7646 12.2364C14.2676 11.9227 13.7583 11.602 13.2491 11.2813M13.2491 11.2813C13.2091 11.256 13.1682 11.2318 13.1274 11.2076C13.045 11.1587 12.9627 11.1099 12.8872 11.0525M13.2491 11.2813L13.516 10.8585C13.446 10.8143 13.3942 10.7839 13.3511 10.7586C13.2889 10.7221 13.2448 10.6962 13.1903 10.6548M12.8872 11.0525L13.191 10.6554C13.1907 10.6552 13.1905 10.655 13.1903 10.6548M12.8872 11.0525C12.6884 10.9004 12.5135 10.9039 12.2877 11.0298C11.1493 11.6647 10.0785 12.3811 9.13411 13.2639L12.1712 9.71259C11.9994 9.67372 11.9116 9.67301 11.8626 9.68276C11.8364 9.68796 11.8016 9.69767 11.7453 9.76912L11.7395 9.7765L11.7334 9.78366L9.82536 12.0281C10.5277 11.4923 11.2742 11.0225 12.0442 10.5932L12.0442 10.5931C12.199 10.5068 12.3898 10.4316 12.61 10.4371C12.8386 10.4427 13.0311 10.5333 13.1903 10.6548M12.8872 11.0525L13.1898 10.6544C13.19 10.6546 13.1901 10.6547 13.1903 10.6548M20.9571 26.196L21.1169 26.2166C21.1231 26.1684 21.1293 26.1204 21.1355 26.0724C21.1478 25.9783 21.1601 25.8845 21.1725 25.7909L20.9189 25.8973L20.8172 25.9401L20.9571 26.196ZM20.9571 26.196C20.9511 26.173 20.9449 26.1496 20.9384 26.1248L20.9571 26.196ZM7.94993 13.9132C7.96904 13.9553 8.00015 13.9942 8.03027 14.0318C8.07438 14.0869 8.11639 14.1394 8.11561 14.1956L7.94993 13.9132ZM7.94993 13.9132C7.91898 13.8452 7.90328 13.7916 7.92377 13.7232M7.94993 13.9132L7.92377 13.7232M27.0341 9.10597C26.8021 9.10467 26.7319 9.18049 26.7345 9.40969C26.7425 10.0574 26.7412 10.7054 26.7399 11.3534C26.7394 11.5965 26.7389 11.8396 26.7389 12.0826L27.0341 9.10597ZM27.0341 9.10597C27.6847 9.10904 28.3354 9.1089 28.9862 9.10876M27.0341 9.10597L28.9862 9.10876M26.5819 13.1726C26.6732 13.1716 26.7475 13.1505 26.7781 13.1419L26.7789 13.1416C26.7948 13.1371 26.8058 13.1339 26.8147 13.1313C26.8298 13.1268 26.8392 13.124 26.857 13.1197L27.2389 13.0269V12.6338V12.0826C27.2389 11.8418 27.2394 11.6001 27.2399 11.3578C27.241 10.776 27.2422 10.191 27.2367 9.60683L12.1712 9.7126C13.2509 9.95708 14.3326 10.1902 15.4116 10.4224L15.5101 10.4436C16.557 10.6689 17.6012 10.8935 18.6429 11.1281L18.6432 11.1281C18.9036 11.1866 19.1595 11.3241 19.4834 11.498C19.5018 11.5079 19.5204 11.5179 19.5392 11.528L19.5397 11.5282C19.795 11.6648 20.0428 11.8092 20.2995 11.9588C20.3938 12.0138 20.4893 12.0694 20.5868 12.1256C20.9428 12.3309 21.3164 12.5381 21.7103 12.7139L21.7105 12.714C22.2804 12.9682 22.9343 13.1623 23.5844 13.2022L23.5844 13.2022C24.3078 13.2465 25.0479 13.2211 25.7591 13.1966C26.0388 13.187 26.314 13.1776 26.5819 13.1726ZM26.5819 13.1726C26.5798 13.1726 26.5776 13.1726 26.5754 13.1726V12.6726L26.5847 13.1725C26.5837 13.1726 26.5828 13.1726 26.5819 13.1726ZM7.92377 13.7232C8.00443 13.4474 8.14526 13.2103 8.3371 13.0069L7.92377 13.7232ZM28.9862 9.10876C29.9093 9.10856 30.8326 9.10836 31.7555 9.1173L28.9862 9.10876ZM9.92891 22.4457H9.92881C9.92884 22.4457 9.92887 22.4457 9.9289 22.4457L9.92891 22.4457ZM6.29096 28.8609C6.30752 29.1603 6.20812 29.3355 5.94346 29.4496L5.74705 28.9898C5.74677 28.9899 5.74649 28.9901 5.74621 28.9902L6.29096 28.8609ZM4.71351 26.8595L4.63329 26.2721H5.13329V26.2699L4.71351 26.8595ZM4.63329 26.2699C4.58227 25.9244 4.53649 25.5779 4.50074 25.2306L4.63329 26.2699ZM9.2091 22.7861C9.21183 22.7846 9.30807 22.7377 9.42937 22.6792L8.94445 22.9172C9.01279 22.8794 9.08362 22.8458 9.15452 22.8121C9.17272 22.8034 9.19093 22.7948 9.2091 22.7861ZM8.44351 13.7482C8.49341 13.6236 8.56221 13.5108 8.64979 13.4071L8.67935 13.4718C8.69924 13.5153 8.70273 13.5408 8.70296 13.5543C8.70313 13.5646 8.70204 13.5848 8.68292 13.6218L8.68235 13.6229C8.63947 13.7064 8.61417 13.7867 8.59821 13.8417C8.5922 13.8451 8.58623 13.8485 8.5803 13.8521C8.56377 13.862 8.54834 13.8724 8.53393 13.8831C8.5017 13.8238 8.46565 13.7766 8.44531 13.7505C8.4447 13.7497 8.4441 13.7489 8.44351 13.7482Z" fill="#23AA49" stroke="#23AA49"/>
<path d="M19.8893 7.83709L19.9647 7.6681L21.2721 8.24632L20.5317 7.00662C20.7894 6.83702 21.0394 6.67335 21.2941 6.51633C22.137 6.86292 22.906 7.34438 23.6092 7.93666L23.61 7.93733C23.6104 7.93773 23.6157 7.9425 23.6244 7.95422C23.6339 7.96686 23.6453 7.98461 23.6574 8.00792C23.6822 8.05555 23.7035 8.1135 23.7183 8.17132C23.8073 8.52369 23.7644 8.89223 23.6457 9.30984C23.4823 9.37623 23.3861 9.49837 23.3349 9.5982C23.2901 9.68556 23.2713 9.77323 23.2646 9.80438C23.2643 9.8058 23.264 9.8071 23.2637 9.80828C23.2609 9.82129 23.2589 9.82998 23.2577 9.83536C22.8651 10.8138 21.9269 11.2527 20.9812 10.912C20.3564 10.6867 19.9435 10.3503 19.7164 9.96891C19.4931 9.59366 19.4202 9.12635 19.5621 8.5707C19.5844 8.48407 19.6232 8.38991 19.6827 8.26594C19.6994 8.2311 19.7196 8.19022 19.7417 8.14569C19.7882 8.05165 19.8429 7.94131 19.8893 7.83709Z" fill="#23AA49" stroke="#23AA49"/>
<path d="M8.60688 12.6724C8.60252 12.6781 8.59816 12.6842 8.5938 12.6899H8.58203C8.58508 12.679 8.5877 12.6681 8.59032 12.6567L8.60688 12.6724Z" fill="#199647"/>
<path d="M8.14275 14.3142C8.13752 14.3199 8.13273 14.326 8.12793 14.3317C8.13185 14.3243 8.13621 14.3169 8.14014 14.3094C8.14101 14.3112 8.14188 14.3129 8.14275 14.3142Z" fill="#199647"/>
</svg>
