<svg width="52" height="52" viewBox="0 0 52 52" fill="none" xmlns="http://www.w3.org/2000/svg">
<rect width="52" height="52" rx="26" fill="#F8F8FA"/>
<path d="M27.7168 21.8784L27.726 21.8126C27.7233 21.8322 27.7198 21.8549 27.7168 21.8784Z" fill="#23AA49"/>
<path d="M39.8633 17.653C39.8234 17.637 39.7959 17.6277 39.7754 17.6223C39.759 17.6179 39.7516 17.6173 39.7507 17.6173C39.7507 17.6173 39.7507 17.6173 39.7507 17.6173L39.8633 17.653ZM39.8633 17.653V20.5485C39.6725 20.5481 39.4813 20.5476 39.2898 20.547C38.6006 20.545 37.908 20.5431 37.2168 20.5496L37.216 20.5496C36.9845 20.5521 36.7373 20.6098 36.5259 20.7164L36.5256 20.7165C34.976 21.4992 33.2872 21.7904 31.5441 21.7989C31.0504 21.8013 30.5466 21.7347 30.0168 21.6446C29.8465 21.6156 29.6701 21.5835 29.4903 21.5508C29.1277 21.4849 28.7516 21.4165 28.3852 21.3664L28.3843 21.3663C28.3696 21.3643 28.3516 21.3596 28.2832 21.3419L28.2804 21.3411L28.2796 21.3409C28.2259 21.327 28.1283 21.3016 28.0217 21.2948C27.907 21.2875 27.7548 21.2992 27.6005 21.3815C27.4446 21.4645 27.3359 21.5932 27.262 21.7335L27.2215 21.8105L27.2094 21.8966L27.2078 21.908C27.2058 21.9187 27.2039 21.9303 27.2023 21.9428L27.1924 22.0123C27.1902 22.0262 27.1885 22.0383 27.1876 22.0449L27.1876 22.0455L27.1862 22.0556L27.1859 22.058L27.1858 22.0587L27.1857 22.0587L27.1849 22.0642L27.1775 22.1148L27.1775 22.115C27.0815 22.7716 26.9206 23.8804 26.8465 24.392L26.8464 24.392L26.8456 24.3984C26.8416 24.4287 26.8381 24.4532 26.8345 24.4783C26.8324 24.4933 26.8302 24.5085 26.8279 24.5252C26.8278 24.5258 26.8278 24.5264 26.8277 24.5269L26.8245 24.5483L26.8206 24.5751L26.8191 24.5857L26.8182 24.5902L26.816 24.6063L26.8137 24.6235C26.7825 24.8419 26.7515 25.062 26.7188 25.2938C26.7091 25.3625 26.6993 25.4322 26.6892 25.5032L26.6152 26.0276L27.143 26.0714C27.3037 26.0847 27.4586 26.0965 27.61 26.1081C27.933 26.1327 28.2397 26.156 28.5503 26.1904C29.4118 26.2859 30.1997 26.4048 30.9215 26.7356C31.3536 26.934 31.4557 27.0104 31.5038 27.0875C31.5466 27.1559 31.5995 27.3203 31.5394 27.8865L31.5394 27.8865C31.3996 29.2046 30.902 30.4366 30.3568 31.7295C30.3103 31.839 30.2643 31.9481 30.1784 32.152L29.7848 33.0866L30.7658 32.8298C31.2144 32.7123 31.5991 32.6325 31.9424 32.6281L29.3474 33.7175L29.3138 33.5909L29.1975 33.6009C29.2481 33.2167 29.2975 32.8362 29.3398 32.4566C29.3398 32.4565 29.3398 32.4564 29.3398 32.4563L28.8429 32.401M39.8633 17.653L14.3589 33.9781C15.9368 33.4092 17.5106 32.8321 19.0752 32.2349L19.0758 32.2347C19.3462 32.1319 19.6124 31.9775 19.8329 31.7943C20.5419 31.2047 21.2381 30.611 21.9371 30.0149C22.4311 29.5936 22.9265 29.1712 23.4288 28.7482C23.6072 28.5975 23.8617 28.4791 24.118 28.4591L24.1193 28.459C25.5105 28.3545 26.9024 28.26 28.2923 28.1657C28.5154 28.1505 28.7385 28.1354 28.9615 28.1202L28.962 28.1202C28.9649 28.12 28.9685 28.1197 28.9727 28.1194C29.0268 28.1152 29.1865 28.1029 29.3425 28.1532C29.3426 28.1532 29.3428 28.1533 29.3429 28.1533L29.1891 28.6291M28.8429 32.401C28.8844 32.0303 28.9227 31.6593 28.961 31.2884C29.0265 30.6547 29.092 30.0211 29.1734 29.3895M28.8429 32.401C28.797 32.8129 28.7429 33.2236 28.6874 33.6448L28.8429 32.401ZM29.1734 29.3895L29.6692 29.4537C29.6692 29.4536 29.6692 29.4535 29.6693 29.4534L29.1734 29.3895ZM29.1734 29.3895C29.1845 29.3039 29.2105 29.2202 29.2429 29.1393L29.3522 28.9028C29.3805 28.8451 29.4074 28.7896 29.4289 28.7367C29.4132 28.7295 29.3953 28.7204 29.3756 28.7105C29.3231 28.6841 29.2579 28.6513 29.1891 28.6291M29.1891 28.6291C29.1723 28.6236 29.1547 28.6201 29.1366 28.618L29.1891 28.6291ZM14.2486 32.7285C14.2484 32.7285 14.2483 32.7286 14.2482 32.7287L14.0342 32.2768L14.249 32.7283C14.2488 32.7283 14.2487 32.7284 14.2486 32.7285ZM14.2486 32.7285C14.3756 32.6683 14.5393 32.5821 14.6951 32.4172M14.2486 32.7285L14.6951 32.4172M14.6951 32.4172L17.1401 31.3773L17.1639 31.3672L17.1864 31.3548C17.2401 31.3251 17.2934 31.2997 17.3617 31.2673C17.3816 31.2578 17.4027 31.2477 17.4255 31.2368L17.4294 31.2349V31.2787L18.1641 30.8881C18.4242 30.7498 18.8023 30.5258 18.9673 30.0251L19.1104 29.8364C19.3709 29.5659 19.5159 29.2173 19.6246 28.9561L19.6283 28.9471L19.633 28.936C19.7572 28.6374 19.8517 28.4101 20.0005 28.2232L20.0302 28.1858L20.0524 28.1434L20.5603 27.1717L20.5999 27.0959L20.6121 27.0113C20.6228 26.937 20.6345 26.8328 20.6304 26.722C20.6265 26.6187 20.6076 26.4575 20.5159 26.304L20.5156 26.3036C20.4292 26.1594 20.3395 26.018 20.2469 25.879L20.2463 25.878C20.089 25.6431 20.0227 25.3562 20.0577 25.0713C20.9742 23.7696 21.8818 22.461 22.7881 21.1544C22.912 20.9757 23.0359 20.7972 23.1597 20.6186L23.1612 20.6165C23.2095 20.546 23.2309 20.4784 23.2412 20.4346C23.2504 20.3955 23.2538 20.3617 23.2549 20.3504L23.255 20.3498C23.2564 20.3358 23.2569 20.329 23.2573 20.3249C23.2577 20.3196 23.2578 20.3187 23.2587 20.3131L23.309 19.9888L23.0315 19.8136C22.5342 19.4997 22.0247 19.1789 21.5155 18.8582L21.2491 19.2813M14.6951 32.4172L17.4372 31.231C17.4372 31.2311 17.4433 31.2281 17.4604 31.2197L17.5407 31.1808C17.607 31.1486 17.6947 31.1063 17.7826 31.0642C17.8708 31.0219 17.9575 30.9806 18.0225 30.9504C18.0554 30.9351 18.0799 30.924 18.0953 30.9172C18.1037 30.9135 18.1047 30.9132 18.1011 30.9146L18.101 30.9147C18.0997 30.9152 18.09 30.919 18.0762 30.9233C18.0699 30.9253 18.0529 30.9306 18.0304 30.9353C18.0192 30.9376 17.9989 30.9415 17.9732 30.9438C17.9537 30.9455 17.898 30.9498 17.8286 30.9355L17.9292 30.4466L17.9292 30.4464L17.9294 30.4466H18.4294V30.4466V30.4466V30.4466V30.4466V30.4466V30.4465V30.4465V30.4465V30.4465V30.4465V30.4465V30.4465V30.4465V30.4465V30.4465V30.4465V30.4464V30.4464V30.4464V30.4464V30.4464V30.4464V30.4464V30.4464V30.4464V30.4464V30.4464V30.4463V30.4463V30.4463V30.4463V30.4463V30.4463V30.4463V30.4463V30.4463V30.4463V30.4463V30.4463V30.4462V30.4462V30.4462V30.4462V30.4462V30.4462V30.4462V30.4462V30.4462V30.4462V30.4462V30.4462V30.4461V30.4461V30.4461V30.4461V30.4461V30.4461V30.4461V30.4461V30.4461V30.4461V30.4461V30.4461V30.446V30.446V30.446V30.446V30.446V30.446V30.446V30.446V30.446V30.446V30.446V30.446V30.4459V30.4459V30.4459V30.4459V30.4459V30.4459V30.4459V30.4459V30.4459V30.4459V30.4459V30.4459V30.4459V30.4458V30.4458V30.4458V30.4458V30.4458V30.4458V30.4458V30.4458V30.4458V30.4458V30.4458V30.4458V30.4458V30.4457V30.4457V30.0382L18.417 30.0356C18.4575 29.9672 18.4904 29.8884 18.5132 29.7965L18.7316 29.5084C18.9385 29.3046 19.0582 29.0164 19.1834 28.7149C19.2974 28.4403 19.416 28.1547 19.6093 27.9118L20.1172 26.9401C20.1351 26.8159 20.1456 26.659 20.0867 26.5605C20.0047 26.4237 19.9193 26.2891 19.8308 26.1562C19.5796 25.781 19.4933 25.3191 19.5831 24.8768C20.5209 23.5459 21.4492 22.2075 22.3772 20.8695C22.5011 20.6909 22.625 20.5122 22.7489 20.3336C22.7553 20.3243 22.7565 20.3111 22.7584 20.2894C22.7597 20.2755 22.7612 20.2583 22.7646 20.2364C22.2676 19.9227 21.7583 19.602 21.2491 19.2813M21.2491 19.2813C21.2091 19.256 21.1682 19.2318 21.1274 19.2076C21.045 19.1587 20.9627 19.1099 20.8872 19.0525M21.2491 19.2813L21.516 18.8585C21.446 18.8143 21.3942 18.7839 21.3511 18.7586C21.2889 18.7221 21.2448 18.6962 21.1903 18.6548M20.8872 19.0525L21.191 18.6554C21.1907 18.6552 21.1905 18.655 21.1903 18.6548M20.8872 19.0525C20.6884 18.9004 20.5135 18.9039 20.2877 19.0298C19.1493 19.6647 18.0785 20.3811 17.1341 21.2639L20.1712 17.7126C19.9994 17.6737 19.9116 17.673 19.8626 17.6828C19.8364 17.688 19.8016 17.6977 19.7453 17.7691L19.7395 17.7765L19.7334 17.7837L17.8254 20.0281C18.5277 19.4923 19.2742 19.0225 20.0442 18.5932L20.0442 18.5931C20.199 18.5068 20.3898 18.4316 20.61 18.4371C20.8386 18.4427 21.0311 18.5333 21.1903 18.6548M20.8872 19.0525L21.1898 18.6544C21.19 18.6546 21.1901 18.6547 21.1903 18.6548M28.9571 34.196L29.1169 34.2166C29.1231 34.1684 29.1293 34.1204 29.1355 34.0724C29.1478 33.9783 29.1601 33.8845 29.1725 33.7909L28.9189 33.8973L28.8172 33.9401L28.9571 34.196ZM28.9571 34.196C28.9511 34.173 28.9449 34.1496 28.9384 34.1248L28.9571 34.196ZM15.9499 21.9132C15.969 21.9553 16.0001 21.9942 16.0303 22.0318C16.0744 22.0869 16.1164 22.1394 16.1156 22.1956L15.9499 21.9132ZM15.9499 21.9132C15.919 21.8452 15.9033 21.7916 15.9238 21.7232M15.9499 21.9132L15.9238 21.7232M35.0341 17.106C34.8021 17.1047 34.7319 17.1805 34.7345 17.4097C34.7425 18.0574 34.7412 18.7054 34.7399 19.3534C34.7394 19.5965 34.7389 19.8396 34.7389 20.0826L35.0341 17.106ZM35.0341 17.106C35.6847 17.109 36.3354 17.1089 36.9862 17.1088M35.0341 17.106L36.9862 17.1088M34.5819 21.1726C34.6732 21.1716 34.7475 21.1505 34.7781 21.1419L34.7789 21.1416C34.7948 21.1371 34.8058 21.1339 34.8147 21.1313C34.8298 21.1268 34.8392 21.124 34.857 21.1197L35.2389 21.0269V20.6338V20.0826C35.2389 19.8418 35.2394 19.6001 35.2399 19.3578C35.241 18.776 35.2422 18.191 35.2367 17.6068L20.1712 17.7126C21.2509 17.9571 22.3326 18.1902 23.4116 18.4224L23.5101 18.4436C24.557 18.6689 25.6012 18.8935 26.6429 19.1281L26.6432 19.1281C26.9036 19.1866 27.1595 19.3241 27.4834 19.498C27.5018 19.5079 27.5204 19.5179 27.5392 19.528L27.5397 19.5282C27.795 19.6648 28.0428 19.8092 28.2995 19.9588C28.3938 20.0138 28.4893 20.0694 28.5868 20.1256C28.9428 20.3309 29.3164 20.5381 29.7103 20.7139L29.7105 20.714C30.2804 20.9682 30.9343 21.1623 31.5844 21.2022L31.5844 21.2022C32.3078 21.2465 33.0479 21.2211 33.7591 21.1966C34.0388 21.187 34.314 21.1776 34.5819 21.1726ZM34.5819 21.1726C34.5798 21.1726 34.5776 21.1726 34.5754 21.1726V20.6726L34.5847 21.1725C34.5837 21.1726 34.5828 21.1726 34.5819 21.1726ZM15.9238 21.7232C16.0044 21.4474 16.1453 21.2103 16.3371 21.0069L15.9238 21.7232ZM36.9862 17.1088C37.9093 17.1086 38.8326 17.1084 39.7555 17.1173L36.9862 17.1088ZM17.9289 30.4457H17.9288C17.9288 30.4457 17.9289 30.4457 17.9289 30.4457L17.9289 30.4457ZM14.291 36.8609C14.3075 37.1603 14.2081 37.3355 13.9435 37.4496L13.7471 36.9898C13.7468 36.9899 13.7465 36.9901 13.7462 36.9902L14.291 36.8609ZM12.7135 34.8595L12.6333 34.2721H13.1333V34.2699L12.7135 34.8595ZM12.6333 34.2699C12.5823 33.9244 12.5365 33.5779 12.5007 33.2306L12.6333 34.2699ZM17.2091 30.7861C17.2118 30.7846 17.3081 30.7377 17.4294 30.6792L16.9444 30.9172C17.0128 30.8794 17.0836 30.8458 17.1545 30.8121C17.1727 30.8034 17.1909 30.7948 17.2091 30.7861ZM16.4435 21.7482C16.4934 21.6236 16.5622 21.5108 16.6498 21.4071L16.6793 21.4718C16.6992 21.5153 16.7027 21.5408 16.703 21.5543C16.7031 21.5646 16.702 21.5848 16.6829 21.6218L16.6824 21.6229C16.6395 21.7064 16.6142 21.7867 16.5982 21.8417C16.5922 21.8451 16.5862 21.8485 16.5803 21.8521C16.5638 21.862 16.5483 21.8724 16.5339 21.8831C16.5017 21.8238 16.4656 21.7766 16.4453 21.7505C16.4447 21.7497 16.4441 21.7489 16.4435 21.7482Z" fill="#23AA49" stroke="#23AA49"/>
<path d="M27.8893 15.837L27.9647 15.668L29.2721 16.2462L28.5317 15.0065C28.7894 14.8369 29.0394 14.6732 29.2941 14.5162C30.137 14.8628 30.906 15.3443 31.6092 15.9365L31.61 15.9372C31.6104 15.9376 31.6157 15.9424 31.6244 15.9541C31.6339 15.9667 31.6453 15.9845 31.6574 16.0078C31.6822 16.0554 31.7035 16.1134 31.7183 16.1712C31.8073 16.5236 31.7644 16.8921 31.6457 17.3097C31.4823 17.3761 31.3861 17.4982 31.3349 17.5981C31.2901 17.6854 31.2713 17.7731 31.2646 17.8043C31.2643 17.8057 31.264 17.807 31.2637 17.8082C31.2609 17.8212 31.2589 17.8299 31.2577 17.8352C30.8651 18.8137 29.9269 19.2526 28.9812 18.9118C28.3564 18.6866 27.9435 18.3502 27.7164 17.9688C27.4931 17.5935 27.4202 17.1262 27.5621 16.5706C27.5844 16.4839 27.6232 16.3898 27.6827 16.2658C27.6994 16.231 27.7196 16.1901 27.7417 16.1456C27.7882 16.0515 27.8429 15.9412 27.8893 15.837Z" fill="#23AA49" stroke="#23AA49"/>
<path d="M16.6069 20.6724C16.6025 20.678 16.5982 20.6841 16.5938 20.6898H16.582C16.5851 20.6789 16.5877 20.668 16.5903 20.6567L16.6069 20.6724Z" fill="#199647"/>
<path d="M16.1418 22.3142C16.1365 22.3199 16.1317 22.326 16.127 22.3316C16.1309 22.3242 16.1352 22.3168 16.1392 22.3094C16.14 22.3111 16.1409 22.3129 16.1418 22.3142Z" fill="#199647"/>
</svg>
