<svg width="22" height="18" viewBox="0 0 22 18" fill="none" xmlns="http://www.w3.org/2000/svg">
<path d="M11 6.74998V13.5M11 13.5L8.00001 10.5M11 13.5L14 10.5M5.75001 16.5C4.67944 16.5011 3.64353 16.1206 2.82831 15.4267C2.01309 14.7327 1.47196 13.7709 1.30212 12.7139C1.13227 11.6569 1.34484 10.574 1.90163 9.65958C2.45842 8.74519 3.32297 8.05927 4.34001 7.72498C4.07871 6.38615 4.34877 4.99818 5.09299 3.855C5.83722 2.71181 6.99718 1.90318 8.32723 1.60033C9.65727 1.29749 11.053 1.52422 12.2188 2.2325C13.3846 2.94078 14.2289 4.07501 14.573 5.39498C15.105 5.22196 15.6748 5.20114 16.218 5.33488C16.7612 5.46862 17.2562 5.75159 17.6471 6.15182C18.038 6.55206 18.3092 7.05362 18.43 7.59985C18.5509 8.14608 18.5166 8.71522 18.331 9.24298C19.1497 9.55569 19.833 10.1451 20.2626 10.9089C20.6921 11.6728 20.8407 12.5629 20.6826 13.4249C20.5245 14.2868 20.0697 15.0662 19.3971 15.6279C18.7244 16.1896 17.8763 16.4982 17 16.5H5.75001Z" stroke="#00031A" stroke-width="1.5" stroke-linecap="round" stroke-linejoin="round"/>
</svg>
