<svg width="15" height="15" viewBox="0 0 15 15" fill="none" xmlns="http://www.w3.org/2000/svg">
<path d="M7.5 5.5V8M13.5 7.5C13.5 8.28793 13.3448 9.06815 13.0433 9.7961C12.7417 10.5241 12.2998 11.1855 11.7426 11.7426C11.1855 12.2998 10.5241 12.7417 9.7961 13.0433C9.06815 13.3448 8.28793 13.5 7.5 13.5C6.71207 13.5 5.93185 13.3448 5.2039 13.0433C4.47595 12.7417 3.81451 12.2998 3.25736 11.7426C2.70021 11.1855 2.25825 10.5241 1.95672 9.7961C1.65519 9.06815 1.5 8.28793 1.5 7.5C1.5 5.9087 2.13214 4.38258 3.25736 3.25736C4.38258 2.13214 5.9087 1.5 7.5 1.5C9.0913 1.5 10.6174 2.13214 11.7426 3.25736C12.8679 4.38258 13.5 5.9087 13.5 7.5ZM7.5 10H7.50533V10.0053H7.5V10Z" stroke="#EF4444" stroke-width="1.5" stroke-linecap="round" stroke-linejoin="round"/>
</svg>
