<svg width="28" height="21" viewBox="0 0 28 21" fill="none" xmlns="http://www.w3.org/2000/svg">
<g clip-path="url(#clip0_395_59968)">
<mask id="mask0_395_59968" style="mask-type:alpha" maskUnits="userSpaceOnUse" x="0" y="0" width="28" height="21">
<path d="M25.3333 0.5H2.66667C1.19391 0.5 0 1.69391 0 3.16667V17.8333C0 19.3061 1.19391 20.5 2.66667 20.5H25.3333C26.8061 20.5 28 19.3061 28 17.8333V3.16667C28 1.69391 26.8061 0.5 25.3333 0.5Z" fill="white"/>
</mask>
<g mask="url(#mask0_395_59968)">
<path d="M25.3333 0.5H2.66667C1.19391 0.5 0 1.69391 0 3.16667V17.8333C0 19.3061 1.19391 20.5 2.66667 20.5H25.3333C26.8061 20.5 28 19.3061 28 17.8333V3.16667C28 1.69391 26.8061 0.5 25.3333 0.5Z" fill="#D4112A"/>
<path fill-rule="evenodd" clip-rule="evenodd" d="M0 15.1666H28V20.5H0V15.1666Z" fill="#20BD42"/>
<path fill-rule="evenodd" clip-rule="evenodd" d="M0 0.5H28V5.83334H0V0.5Z" fill="#02A3BD"/>
<path fill-rule="evenodd" clip-rule="evenodd" d="M0 7.16671H28V13.8334H0V7.16671ZM6.66667 5.72004C6.45867 5.79338 6.23333 5.83338 6 5.83338C4.896 5.83338 4 4.93738 4 3.83337C4 2.72937 4.896 1.83337 6 1.83337C6.23333 1.83337 6.45867 1.87337 6.66667 1.94671C5.88933 2.22137 5.33333 2.96271 5.33333 3.83337C5.33333 4.70404 5.88933 5.44671 6.66667 5.72004Z" fill="white"/>
<path fill-rule="evenodd" clip-rule="evenodd" d="M8 3.16671H9.33333V4.50004H8V3.16671ZM9.33333 1.83337H10.6667V3.16671H9.33333V1.83337ZM10.6667 3.16671H12V4.50004H10.6667V3.16671ZM12 1.83337H13.3333V3.16671H12V1.83337ZM13.3333 3.16671H14.6667V4.50004H13.3333V3.16671ZM12 4.50004H13.3333V5.83337H12V4.50004ZM9.33333 4.50004H10.6667V5.83337H9.33333V4.50004Z" fill="#78CDDB"/>
<path d="M25.3332 1.16663H2.6665C1.56193 1.16663 0.666504 2.06206 0.666504 3.16663V17.8333C0.666504 18.9379 1.56193 19.8333 2.6665 19.8333H25.3332C26.4377 19.8333 27.3332 18.9379 27.3332 17.8333V3.16663C27.3332 2.06206 26.4377 1.16663 25.3332 1.16663Z" stroke="black" stroke-opacity="0.1"/>
</g>
</g>
<defs>
<clipPath id="clip0_395_59968">
<rect width="28" height="20" fill="white" transform="translate(0 0.5)"/>
</clipPath>
</defs>
</svg>
