<svg width="24" height="25" viewBox="0 0 24 25" fill="none" xmlns="http://www.w3.org/2000/svg">
<path d="M11.999 10.25V17M11.999 17L8.99903 14M11.999 17L14.999 14M6.74903 20C5.67847 20.0011 4.64255 19.6206 3.82733 18.9267C3.01211 18.2327 2.47099 17.2709 2.30114 16.2139C2.1313 15.1569 2.34386 14.074 2.90065 13.1596C3.45745 12.2452 4.32199 11.5593 5.33903 11.225C5.07773 9.88615 5.34779 8.49818 6.09202 7.355C6.83624 6.21181 7.9962 5.40318 9.32625 5.10033C10.6563 4.79749 12.052 5.02422 13.2178 5.7325C14.3836 6.44078 15.2279 7.57501 15.572 8.89498C16.104 8.72196 16.6738 8.70114 17.2171 8.83488C17.7603 8.96862 18.2553 9.25159 18.6461 9.65182C19.037 10.0521 19.3082 10.5536 19.429 11.0998C19.5499 11.6461 19.5156 12.2152 19.33 12.743C20.1487 13.0557 20.8321 13.6451 21.2616 14.4089C21.6911 15.1728 21.8398 16.0629 21.6817 16.9249C21.5236 17.7868 21.0687 18.5662 20.3961 19.1279C19.7234 19.6896 18.8754 19.9982 17.999 20H6.74903Z" stroke="#00031A" stroke-width="1.5" stroke-linecap="round" stroke-linejoin="round"/>
</svg>
