<svg width="33" height="32" viewBox="0 0 33 32" fill="none" xmlns="http://www.w3.org/2000/svg">
<path d="M21.8333 5.33325H11.1666C8.22107 5.33325 5.83325 7.72107 5.83325 10.6666V21.3333C5.83325 24.2788 8.22107 26.6666 11.1666 26.6666H21.8333C24.7788 26.6666 27.1666 24.2788 27.1666 21.3333V10.6666C27.1666 7.72107 24.7788 5.33325 21.8333 5.33325Z" fill="#23AA49" stroke="#23AA49" stroke-width="2" stroke-linecap="round" stroke-linejoin="round"/>
<path d="M16.5 20C18.7091 20 20.5 18.2091 20.5 16C20.5 13.7909 18.7091 12 16.5 12C14.2909 12 12.5 13.7909 12.5 16C12.5 18.2091 14.2909 20 16.5 20Z" fill="#23AA49" stroke="white" stroke-width="2" stroke-linecap="round" stroke-linejoin="round"/>
<path d="M22.5 10V10.0013" stroke="white" stroke-width="2" stroke-linecap="round" stroke-linejoin="round"/>
</svg>
