<svg width="49" height="48" viewBox="0 0 49 48" fill="none" xmlns="http://www.w3.org/2000/svg">
<path d="M42.5001 42L32.1061 31.606M32.1061 31.606C34.9192 28.7928 36.4997 24.9774 36.4997 20.999C36.4997 18.2439 35.7417 15.567 34.3414 13.2469M32.1061 31.606C29.2929 34.4191 25.4775 35.9995 21.4991 35.9995C18.8716 35.9995 16.3151 35.3102 14.0715 34.0316M30.5005 8.99988C27.919 7.06323 24.7641 5.99841 21.4991 5.99841C17.5207 5.99841 13.7052 7.57882 10.8921 10.392C8.07895 13.2051 6.49854 17.0206 6.49854 20.999C6.49854 24.2636 7.56272 27.4185 9.49899 29.9999" stroke="#9CA3AF" stroke-width="2" stroke-linecap="round" stroke-linejoin="round"/>
<path d="M43.5 4L4.5 43" stroke="#9CA3AF" stroke-width="2" stroke-linecap="round" stroke-linejoin="round"/>
</svg>
