<svg width="33" height="32" viewBox="0 0 33 32" fill="none" xmlns="http://www.w3.org/2000/svg">
<path d="M18.755 10.6243C16.8458 11.4034 13.0273 13.0161 7.29959 15.462C6.36953 15.8246 5.88148 16.1794 5.83851 16.526C5.75256 17.192 6.73174 17.3993 7.95954 17.7914C8.96327 18.111 10.3139 18.485 11.0137 18.4998C11.6522 18.5133 12.3612 18.256 13.1439 17.7282C18.4972 14.1873 18.6333 15.1373 18.6333 15.1373C18.7499 15.2372 18.6095 15.4656 18.5972 15.5164C18.502 15.923 16.8059 17.6268 16.5173 17.9214C15.4123 19.0469 14.1538 19.7357 16.0937 20.9887C17.7728 22.073 18.7489 22.7645 20.477 23.8758C21.582 24.5857 22.4476 25.4277 23.5895 25.3247C24.1144 25.2775 24.6577 24.7936 24.9309 23.3504C25.5816 19.9394 26.8616 12.5493 27.1562 9.50398C27.1839 9.23736 27.1501 8.89581 27.1255 8.74595C27.0979 8.59594 27.0427 8.38229 26.8462 8.2243C26.6099 8.03698 26.2477 7.99756 26.085 8.00011C25.3452 8.0132 24.2126 8.39959 18.755 10.6243Z" fill="#23AA49"/>
</svg>
