<svg width="38" height="54" viewBox="0 0 38 54" fill="none" xmlns="http://www.w3.org/2000/svg">
<g filter="url(#filter0_f_992_77728)">
<ellipse cx="19" cy="41.5" rx="13" ry="6.5" fill="black" fill-opacity="0.12"/>
</g>
<mask id="path-2-outside-1_992_77728" maskUnits="userSpaceOnUse" x="3" y="2" width="32" height="41" fill="black">
<rect fill="white" x="3" y="2" width="32" height="41"/>
<path fill-rule="evenodd" clip-rule="evenodd" d="M27.8739 30.0948C31.5889 27.3645 34 22.9638 34 18C34 9.71573 27.2843 3 19 3C10.7157 3 4 9.71573 4 18C4 22.9638 6.41111 27.3645 10.1261 30.0948C12.9491 32.222 16.9284 35.5777 17.8432 40.9793C17.94 41.5514 18.4197 41.9954 19 41.9954C19.5803 41.9954 20.06 41.5514 20.1568 40.9793C21.0716 35.5777 25.0509 32.222 27.8739 30.0948Z"/>
</mask>
<path fill-rule="evenodd" clip-rule="evenodd" d="M27.8739 30.0948C31.5889 27.3645 34 22.9638 34 18C34 9.71573 27.2843 3 19 3C10.7157 3 4 9.71573 4 18C4 22.9638 6.41111 27.3645 10.1261 30.0948C12.9491 32.222 16.9284 35.5777 17.8432 40.9793C17.94 41.5514 18.4197 41.9954 19 41.9954C19.5803 41.9954 20.06 41.5514 20.1568 40.9793C21.0716 35.5777 25.0509 32.222 27.8739 30.0948Z" fill="#23AA49"/>
<path d="M27.8739 30.0948L27.2817 29.2889L27.2721 29.2961L27.8739 30.0948ZM10.1261 30.0948L10.7279 29.2961L10.7183 29.289L10.1261 30.0948ZM17.8432 40.9793L18.8291 40.8123L17.8432 40.9793ZM20.1568 40.9793L19.1709 40.8123L20.1568 40.9793ZM28.4661 30.9006C32.4264 27.99 35 23.2955 35 18H33C33 22.6322 30.7513 26.739 27.2817 29.289L28.4661 30.9006ZM35 18C35 9.16344 27.8366 2 19 2V4C26.732 4 33 10.268 33 18H35ZM19 2C10.1634 2 3 9.16344 3 18H5C5 10.268 11.268 4 19 4V2ZM3 18C3 23.2955 5.57357 27.99 9.53386 30.9006L10.7183 29.289C7.24866 26.739 5 22.6322 5 18H3ZM18.8291 40.8123C17.844 34.9951 13.5649 31.4339 10.7279 29.2961L9.52427 30.8934C12.3333 33.01 16.0129 36.1603 16.8572 41.1462L18.8291 40.8123ZM19 40.9954C18.9719 40.9954 18.9401 40.9861 18.9061 40.9558C18.8698 40.9234 18.8394 40.8731 18.8291 40.8123L16.8572 41.1462C17.0275 42.1522 17.8855 42.9954 19 42.9954V40.9954ZM19.1709 40.8123C19.1606 40.8731 19.1302 40.9234 19.0939 40.9558C19.0599 40.9861 19.0281 40.9954 19 40.9954V42.9954C20.1145 42.9954 20.9725 42.1522 21.1428 41.1462L19.1709 40.8123ZM27.2721 29.2961C24.4351 31.4339 20.156 34.9951 19.1709 40.8123L21.1428 41.1462C21.9871 36.1603 25.6667 33.01 28.4757 30.8934L27.2721 29.2961Z" fill="url(#paint0_linear_992_77728)" mask="url(#path-2-outside-1_992_77728)"/>
<circle cx="19" cy="18" r="6" fill="#EDF8F0"/>
<defs>
<filter id="filter0_f_992_77728" x="0" y="29" width="38" height="25" filterUnits="userSpaceOnUse" color-interpolation-filters="sRGB">
<feFlood flood-opacity="0" result="BackgroundImageFix"/>
<feBlend mode="normal" in="SourceGraphic" in2="BackgroundImageFix" result="shape"/>
<feGaussianBlur stdDeviation="3" result="effect1_foregroundBlur_992_77728"/>
</filter>
<linearGradient id="paint0_linear_992_77728" x1="19" y1="3" x2="19" y2="41.9954" gradientUnits="userSpaceOnUse">
<stop stop-color="white"/>
<stop offset="1" stop-color="white" stop-opacity="0.35"/>
</linearGradient>
</defs>
</svg>
