<svg width="132" height="38" viewBox="0 0 132 38" fill="none" xmlns="http://www.w3.org/2000/svg">
<path d="M54.0336 9.96091C55.6104 9.96091 56.9883 10.2734 58.1674 10.8984C59.3464 11.5235 60.2555 12.4042 60.8948 13.5406C61.5482 14.6628 61.8749 15.9626 61.8749 17.4399C61.8749 18.9031 61.5482 20.2029 60.8948 21.3393C60.2555 22.4757 59.3393 23.3564 58.146 23.9814C56.967 24.6065 55.5962 24.919 54.0336 24.919H48.4297V9.96091H54.0336ZM53.7993 21.7654C55.1772 21.7654 56.2497 21.389 57.0167 20.6361C57.7838 19.8832 58.1674 18.8179 58.1674 17.4399C58.1674 16.062 57.7838 14.9895 57.0167 14.2225C56.2497 13.4554 55.1772 13.0718 53.7993 13.0718H52.0733V21.7654H53.7993Z" fill="black"/>
<path d="M62.3344 18.9528C62.3344 17.7312 62.5616 16.6587 63.0162 15.7353C63.485 14.812 64.1171 14.1017 64.9126 13.6045C65.7081 13.1074 66.5959 12.8588 67.5761 12.8588C68.4142 12.8588 69.1458 13.0292 69.7708 13.3702C70.41 13.7111 70.9001 14.1585 71.241 14.7125V13.0292H74.8847V24.919H71.241V23.2357C70.8859 23.7897 70.3887 24.2371 69.7495 24.5781C69.1245 24.919 68.3929 25.0895 67.5548 25.0895C66.5888 25.0895 65.7081 24.8409 64.9126 24.3437C64.1171 23.8323 63.485 23.1149 63.0162 22.1916C62.5616 21.254 62.3344 20.1744 62.3344 18.9528ZM71.241 18.9741C71.241 18.065 70.9853 17.3476 70.4739 16.822C69.9768 16.2964 69.3659 16.0336 68.6415 16.0336C67.917 16.0336 67.2991 16.2964 66.7877 16.822C66.2905 17.3334 66.0419 18.0437 66.0419 18.9528C66.0419 19.8619 66.2905 20.5864 66.7877 21.1262C67.2991 21.6518 67.917 21.9146 68.6415 21.9146C69.3659 21.9146 69.9768 21.6518 70.4739 21.1262C70.9853 20.6006 71.241 19.8832 71.241 18.9741Z" fill="black"/>
<path d="M81.5052 25.0895C80.4683 25.0895 79.5449 24.9119 78.7352 24.5568C77.9255 24.2016 77.2863 23.7186 76.8175 23.1078C76.3487 22.4828 76.0859 21.7867 76.0291 21.0197H79.6301C79.6728 21.4316 79.8645 21.7654 80.2055 22.0211C80.5464 22.2768 80.9654 22.4047 81.4626 22.4047C81.9172 22.4047 82.2652 22.3194 82.5067 22.149C82.7624 21.9643 82.8902 21.7299 82.8902 21.4458C82.8902 21.1049 82.7127 20.8563 82.3575 20.7C82.0024 20.5296 81.4271 20.3449 80.6316 20.146C79.7793 19.9472 79.069 19.7412 78.5008 19.5281C77.9326 19.3008 77.4425 18.9528 77.0306 18.484C76.6186 18.0011 76.4127 17.3547 76.4127 16.545C76.4127 15.8632 76.5973 15.2452 76.9667 14.6912C77.3502 14.123 77.9042 13.6756 78.6287 13.3488C79.3673 13.0221 80.241 12.8588 81.2495 12.8588C82.7411 12.8588 83.913 13.2281 84.7653 13.9668C85.6318 14.7054 86.129 15.6856 86.2569 16.9073H82.8902C82.8334 16.4953 82.6488 16.1686 82.3362 15.9271C82.0379 15.6856 81.6402 15.5649 81.143 15.5649C80.7168 15.5649 80.3901 15.6501 80.1628 15.8206C79.9356 15.9768 79.8219 16.197 79.8219 16.4811C79.8219 16.822 79.9995 17.0777 80.3546 17.2482C80.7239 17.4186 81.2922 17.5891 82.0592 17.7596C82.94 17.9868 83.6573 18.2141 84.2113 18.4414C84.7653 18.6545 85.2483 19.0096 85.6603 19.5068C86.0864 19.9898 86.3066 20.6432 86.3208 21.4671C86.3208 22.1632 86.1219 22.7882 85.7242 23.3422C85.3406 23.882 84.7795 24.3082 84.0409 24.6207C83.3164 24.9332 82.4712 25.0895 81.5052 25.0895Z" fill="black"/>
<path d="M92.5345 25.0895C91.4975 25.0895 90.5742 24.9119 89.7645 24.5568C88.9548 24.2016 88.3156 23.7186 87.8468 23.1078C87.378 22.4828 87.1152 21.7867 87.0584 21.0197H90.6594C90.702 21.4316 90.8938 21.7654 91.2347 22.0211C91.5757 22.2768 91.9947 22.4047 92.4919 22.4047C92.9465 22.4047 93.2945 22.3194 93.536 22.149C93.7917 21.9643 93.9195 21.7299 93.9195 21.4458C93.9195 21.1049 93.742 20.8563 93.3868 20.7C93.0317 20.5296 92.4564 20.3449 91.6609 20.146C90.8086 19.9472 90.0983 19.7412 89.5301 19.5281C88.9619 19.3008 88.4718 18.9528 88.0599 18.484C87.6479 18.0011 87.442 17.3547 87.442 16.545C87.442 15.8632 87.6266 15.2452 87.996 14.6912C88.3795 14.123 88.9335 13.6756 89.658 13.3488C90.3966 13.0221 91.2703 12.8588 92.2788 12.8588C93.7704 12.8588 94.9423 13.2281 95.7946 13.9668C96.6611 14.7054 97.1583 15.6856 97.2862 16.9073H93.9195C93.8627 16.4953 93.678 16.1686 93.3655 15.9271C93.0672 15.6856 92.6695 15.5649 92.1723 15.5649C91.7461 15.5649 91.4194 15.6501 91.1921 15.8206C90.9648 15.9768 90.8512 16.197 90.8512 16.4811C90.8512 16.822 91.0288 17.0777 91.3839 17.2482C91.7532 17.4186 92.3214 17.5891 93.0885 17.7596C93.9692 17.9868 94.6866 18.2141 95.2406 18.4414C95.7946 18.6545 96.2776 19.0096 96.6895 19.5068C97.1157 19.9898 97.3359 20.6432 97.3501 21.4671C97.3501 22.1632 97.1512 22.7882 96.7535 23.3422C96.3699 23.882 95.8088 24.3082 95.0702 24.6207C94.3457 24.9332 93.5005 25.0895 92.5345 25.0895Z" fill="black"/>
<path d="M110.872 13.0292L103.415 30.5656H99.494L102.221 24.5141L97.3845 13.0292H101.454L104.203 20.4657L106.93 13.0292H110.872Z" fill="black"/>
<path d="M116.75 25.0895C115.585 25.0895 114.534 24.8409 113.596 24.3437C112.673 23.8465 111.941 23.1362 111.402 22.2129C110.876 21.2896 110.613 20.21 110.613 18.9741C110.613 17.7525 110.883 16.68 111.423 15.7566C111.963 14.8191 112.701 14.1017 113.639 13.6045C114.576 13.1074 115.628 12.8588 116.792 12.8588C117.957 12.8588 119.008 13.1074 119.946 13.6045C120.884 14.1017 121.622 14.8191 122.162 15.7566C122.702 16.68 122.972 17.7525 122.972 18.9741C122.972 20.1958 122.695 21.2754 122.141 22.2129C121.601 23.1362 120.855 23.8465 119.903 24.3437C118.966 24.8409 117.915 25.0895 116.75 25.0895ZM116.75 21.9359C117.446 21.9359 118.035 21.6802 118.518 21.1688C119.016 20.6574 119.264 19.9259 119.264 18.9741C119.264 18.0224 119.023 17.2908 118.54 16.7794C118.071 16.268 117.489 16.0123 116.792 16.0123C116.082 16.0123 115.493 16.268 115.024 16.7794C114.555 17.2766 114.321 18.0082 114.321 18.9741C114.321 19.9259 114.548 20.6574 115.003 21.1688C115.471 21.6802 116.054 21.9359 116.75 21.9359Z" fill="black"/>
<path d="M127.696 15.0109C128.122 14.3574 128.655 13.846 129.294 13.4767C129.933 13.0932 130.644 12.9014 131.425 12.9014V16.7581H130.423C129.514 16.7581 128.832 16.957 128.378 17.3547C127.923 17.7383 127.696 18.4201 127.696 19.4003V24.919H124.052V13.0292H127.696V15.0109Z" fill="black"/>
<path d="M23.959 12.6755L23.9734 12.5718C23.9693 12.6027 23.9638 12.6384 23.959 12.6755Z" fill="black"/>
<path d="M43.8716 5.49386V11.3704C43.6615 11.3704 43.4755 11.3704 43.2908 11.369C41.8348 11.367 40.3794 11.3567 38.9247 11.3704C38.6762 11.3731 38.4057 11.4369 38.184 11.5488C35.6055 12.851 32.8177 13.3237 29.9893 13.3375C28.2964 13.3457 26.6021 12.8812 24.9051 12.6493C24.5742 12.6047 24.1822 12.3536 23.9399 12.814L23.933 12.8627C23.9317 12.8668 23.9303 12.8709 23.9303 12.8764L23.9118 13.0061C23.9076 13.0301 23.9049 13.0562 23.9008 13.0822L23.8891 13.1618C23.7381 14.1951 23.4848 15.9406 23.3681 16.7461C23.3578 16.8243 23.3475 16.8936 23.3392 16.9533C23.3351 16.9821 23.331 17.0088 23.3276 17.0328V17.039C23.3248 17.0514 23.3234 17.0644 23.3214 17.0747L23.3173 17.1056C23.2534 17.5515 23.1903 18.0016 23.1209 18.4929C23.8898 18.5567 24.6264 18.6013 25.3582 18.6822C26.7195 18.8332 28.0719 19.0294 29.3337 19.6078C30.5907 20.1848 30.9504 20.4332 30.7609 22.2185C30.5268 24.4257 29.6955 26.4668 28.8408 28.4936C28.768 28.6651 28.6959 28.836 28.5607 29.1571C30.0833 28.7584 31.5085 28.5149 32.7874 29.542C30.555 30.4792 28.2991 31.426 25.9966 32.3928C25.9541 32.2315 25.9232 32.1101 25.8827 31.9578C25.7461 31.9694 25.6047 31.9818 25.3829 32.0017C25.5051 31.0528 25.6314 30.1499 25.7323 29.2435C25.9095 27.6627 26.0495 26.0785 26.2527 24.5018C26.3015 24.1258 26.5335 23.7732 26.655 23.474C26.5644 23.4322 26.4264 23.3526 26.2774 23.3046C26.1841 23.2744 26.0749 23.2819 25.9726 23.2888C23.4326 23.4617 20.8926 23.6312 18.3539 23.8219C18.1335 23.839 17.885 23.9502 17.7148 24.0943C15.8214 25.6888 13.9528 27.3108 12.0491 28.8936C11.6338 29.2387 11.1389 29.5255 10.6336 29.7176C8.16359 30.6603 5.68054 31.5708 3.19337 32.4675C2.82403 32.6 2.73685 32.7893 2.74989 33.1502C2.78765 34.1869 2.76362 35.2285 2.81991 36.2659C2.846 36.7372 2.68948 37.013 2.27278 37.1928C2.02221 37.2998 1.78811 37.4439 1.50734 37.5914L1.0007 37.7293L0.896358 37.2339L0.336179 33.1145L0.209864 32.1897V32.1862C0.129544 31.6422 0.0574615 31.0967 0.001169 30.5499C-0.0159934 30.3921 0.159063 30.1355 0.312838 30.0545C1.00002 29.6936 1.71329 29.3821 2.41557 29.048C2.61259 28.9547 2.80413 28.8476 2.97781 28.6171L6.99792 26.9073C7.13316 26.8325 7.27458 26.768 7.41462 26.7008C7.42629 26.6946 8.52537 26.1601 8.54871 26.165C8.54871 26.165 8.54871 26.1654 8.54871 26.1663C8.94619 25.955 9.32788 25.708 9.46793 25.1427L9.81186 24.6891C10.4345 24.0757 10.5553 22.9773 11.1938 22.1752L11.9935 20.6452C12.0217 20.4497 12.0382 20.2027 11.9455 20.0476C11.8164 19.8322 11.6819 19.6202 11.5425 19.4109C11.1471 18.8202 11.0112 18.0929 11.1526 17.3965C12.8263 15.0212 14.4807 12.6308 16.1372 10.2431C16.1537 10.2191 16.1482 10.1786 16.1619 10.0901C15.3793 9.59611 14.5775 9.09113 13.7757 8.58615C13.5855 8.46609 13.3837 8.36111 13.2059 8.22595C12.8928 7.9865 12.6176 7.99199 12.262 8.19027C10.4695 9.18993 8.78349 10.3179 7.29655 11.7079C7.42698 11.9934 7.45856 12.298 7.28556 12.6328C7.21897 12.7625 7.1922 12.9128 7.14689 13.0541C7.10776 13.1769 7.05627 13.2853 6.90112 13.2894C6.78579 13.2922 6.7652 13.3965 6.72195 13.4712C6.62721 13.6359 6.54209 13.8081 6.36772 13.9049C6.27298 13.957 6.09861 14.0037 6.08969 13.8946C6.06978 13.6551 5.83431 13.5529 5.73614 13.3608C5.73477 13.3587 5.7334 13.356 5.73202 13.3532C5.70662 13.3018 5.69152 13.2435 5.69289 13.1749C5.69495 13.026 5.50617 12.8935 5.43203 12.7303C5.38329 12.6232 5.35857 12.5388 5.39084 12.4311C5.51784 11.9968 5.73958 11.6236 6.04163 11.3031L10.7894 5.71822C11.1773 5.22559 11.6462 5.21118 12.2523 5.34841C15.6429 6.11616 19.0493 6.81325 22.4413 7.57689C23.0035 7.70313 23.5363 8.00433 24.0518 8.28084C25.1804 8.88461 26.2555 9.60365 27.4191 10.123C28.2545 10.4956 29.1909 10.7694 30.0971 10.8249C31.6444 10.9196 33.2042 10.8057 34.7584 10.7769C34.8243 10.7769 34.8888 10.7467 35.0158 10.7158V9.84791C35.0158 8.44482 35.0261 7.04172 35.0089 5.63932C35.0048 5.27842 35.1154 5.15904 35.4806 5.1611C37.9581 5.17276 40.4371 5.15492 42.9146 5.17894C43.2235 5.18168 43.5304 5.37585 43.8723 5.49386H43.8716Z" fill="black"/>
<path d="M23.512 2.8422C22.877 2.57187 20.812 1.8295 20.2168 1.57564C20.2312 1.52075 20.3019 1.21337 20.3163 1.15848C20.8044 1.24974 22.7692 1.80068 23.247 1.93104C23.6081 2.02984 23.8882 2.0319 24.0673 1.63259C24.204 1.69296 24.2664 1.99897 24.4634 2.0861C24.3577 1.90909 24.2932 1.80068 24.1806 1.61063C24.8596 1.1674 25.5152 0.724178 26.1907 0.314571C26.3067 0.243216 26.5271 0.267229 26.6685 0.324862C28.1074 0.906682 29.4117 1.72041 30.5952 2.71732C30.8087 2.8964 30.9515 3.21475 31.0229 3.49537C31.233 4.32556 31.0806 5.14478 30.8279 5.94615C30.795 6.05044 30.6803 6.22952 30.6515 6.2206C30.3007 6.11082 30.3412 6.41065 30.2774 6.57188C29.5209 8.49711 27.6103 9.43913 25.6834 8.74479C23.4584 7.94273 22.4156 6.22677 22.9532 4.12248C23.0623 3.69777 23.3046 3.30738 23.512 2.8422Z" fill="black"/>
<path d="M6.46687 10.776C6.46 10.7849 6.45313 10.7946 6.44627 10.8035H6.42773C6.43254 10.7863 6.43666 10.7692 6.44078 10.7513L6.46687 10.776Z" fill="black"/>
<path d="M5.73428 13.3613C5.72604 13.3702 5.71849 13.3798 5.71094 13.3887C5.71712 13.3771 5.72398 13.3654 5.73016 13.3537C5.73153 13.3565 5.73291 13.3592 5.73428 13.3613Z" fill="black"/>
</svg>
