<svg width="170" height="50" viewBox="0 0 170 50" fill="none" xmlns="http://www.w3.org/2000/svg">
<path d="M71.5408 12.5C73.5468 12.5 75.2998 12.8976 76.7998 13.6928C78.2998 14.4879 79.4564 15.6084 80.2697 17.0542C81.101 18.4819 81.5167 20.1355 81.5167 22.015C81.5167 23.8765 81.101 25.5301 80.2697 26.9759C79.4564 28.4216 78.2908 29.5421 76.7727 30.3373C75.2727 31.1325 73.5288 31.5301 71.5408 31.5301H64.4113V12.5H71.5408ZM71.2426 27.518C72.9956 27.518 74.3601 27.0391 75.336 26.0813C76.3119 25.1235 76.7998 23.768 76.7998 22.015C76.7998 20.262 76.3119 18.8976 75.336 17.9217C74.3601 16.9458 72.9956 16.4578 71.2426 16.4578H69.0468V27.518H71.2426Z" fill="black"/>
<path d="M82.1012 23.9397C82.1012 22.3855 82.3904 21.0211 82.9687 19.8464C83.5651 18.6717 84.3693 17.7681 85.3813 17.1355C86.3934 16.503 87.5229 16.1867 88.7699 16.1867C89.8361 16.1867 90.7668 16.4036 91.562 16.8373C92.3753 17.2711 92.9988 17.8403 93.4325 18.5452V16.4036H98.068V31.5301H93.4325V29.3885C92.9807 30.0933 92.3482 30.6626 91.5349 31.0963C90.7397 31.5301 89.809 31.7469 88.7427 31.7469C87.5138 31.7469 86.3934 31.4307 85.3813 30.7981C84.3693 30.1475 83.5651 29.2349 82.9687 28.0602C82.3904 26.8674 82.1012 25.4939 82.1012 23.9397ZM93.4325 23.9668C93.4325 22.8102 93.1072 21.8976 92.4566 21.2289C91.8241 20.5602 91.047 20.2259 90.1253 20.2259C89.2036 20.2259 88.4174 20.5602 87.7668 21.2289C87.1343 21.8795 86.8181 22.7831 86.8181 23.9397C86.8181 25.0963 87.1343 26.018 87.7668 26.7048C88.4174 27.3734 89.2036 27.7078 90.1253 27.7078C91.047 27.7078 91.8241 27.3734 92.4566 26.7048C93.1072 26.0361 93.4325 25.1235 93.4325 23.9668Z" fill="black"/>
<path d="M106.491 31.7469C105.172 31.7469 103.997 31.521 102.967 31.0692C101.937 30.6174 101.123 30.003 100.527 29.2258C99.9307 28.4307 99.5963 27.5451 99.524 26.5692H104.105C104.16 27.0933 104.404 27.518 104.837 27.8433C105.271 28.1686 105.804 28.3313 106.437 28.3313C107.015 28.3313 107.458 28.2228 107.765 28.006C108.09 27.771 108.253 27.4728 108.253 27.1114C108.253 26.6777 108.027 26.3614 107.575 26.1626C107.123 25.9457 106.391 25.7108 105.379 25.4578C104.295 25.2048 103.391 24.9427 102.669 24.6716C101.946 24.3825 101.322 23.9397 100.798 23.3433C100.274 22.7289 100.012 21.9066 100.012 20.8765C100.012 20.009 100.247 19.2229 100.717 18.5181C101.205 17.7952 101.91 17.2259 102.831 16.8102C103.771 16.3946 104.882 16.1867 106.166 16.1867C108.063 16.1867 109.554 16.6566 110.638 17.5964C111.741 18.5361 112.373 19.7831 112.536 21.3373H108.253C108.181 20.8132 107.946 20.3976 107.548 20.0903C107.169 19.7831 106.663 19.6295 106.03 19.6295C105.488 19.6295 105.072 19.7379 104.783 19.9548C104.494 20.1536 104.349 20.4337 104.349 20.7952C104.349 21.2289 104.575 21.5542 105.027 21.7711C105.497 21.9879 106.22 22.2048 107.196 22.4217C108.316 22.7108 109.229 23 109.934 23.2891C110.638 23.5602 111.253 24.012 111.777 24.6445C112.319 25.259 112.599 26.0903 112.617 27.1385C112.617 28.024 112.364 28.8192 111.858 29.524C111.37 30.2108 110.657 30.753 109.717 31.1505C108.795 31.5481 107.72 31.7469 106.491 31.7469Z" fill="black"/>
<path d="M120.523 31.7469C119.203 31.7469 118.029 31.521 116.999 31.0692C115.968 30.6174 115.155 30.003 114.559 29.2258C113.962 28.4307 113.628 27.5451 113.556 26.5692H118.137C118.191 27.0933 118.435 27.518 118.869 27.8433C119.303 28.1686 119.836 28.3313 120.468 28.3313C121.047 28.3313 121.489 28.2228 121.797 28.006C122.122 27.771 122.285 27.4728 122.285 27.1114C122.285 26.6777 122.059 26.3614 121.607 26.1626C121.155 25.9457 120.423 25.7108 119.411 25.4578C118.327 25.2048 117.423 24.9427 116.7 24.6716C115.977 24.3825 115.354 23.9397 114.83 23.3433C114.306 22.7289 114.044 21.9066 114.044 20.8765C114.044 20.009 114.279 19.2229 114.749 18.5181C115.236 17.7952 115.941 17.2259 116.863 16.8102C117.803 16.3946 118.914 16.1867 120.197 16.1867C122.095 16.1867 123.586 16.6566 124.67 17.5964C125.773 18.5361 126.405 19.7831 126.568 21.3373H122.285C122.212 20.8132 121.977 20.3976 121.58 20.0903C121.2 19.7831 120.694 19.6295 120.062 19.6295C119.52 19.6295 119.104 19.7379 118.815 19.9548C118.526 20.1536 118.381 20.4337 118.381 20.7952C118.381 21.2289 118.607 21.5542 119.059 21.7711C119.529 21.9879 120.252 22.2048 121.227 22.4217C122.348 22.7108 123.261 23 123.965 23.2891C124.67 23.5602 125.285 24.012 125.809 24.6445C126.351 25.259 126.631 26.0903 126.649 27.1385C126.649 28.024 126.396 28.8192 125.89 29.524C125.402 30.2108 124.688 30.753 123.749 31.1505C122.827 31.5481 121.752 31.7469 120.523 31.7469Z" fill="black"/>
<path d="M143.853 16.4036L134.365 38.7138H129.377L132.847 31.015L126.693 16.4036H131.871L135.368 25.8644L138.837 16.4036H143.853Z" fill="black"/>
<path d="M151.33 31.7469C149.848 31.7469 148.511 31.4307 147.318 30.7981C146.143 30.1656 145.213 29.262 144.526 28.0873C143.857 26.9126 143.523 25.5391 143.523 23.9668C143.523 22.4126 143.866 21.0482 144.553 19.8735C145.24 18.6807 146.179 17.7681 147.372 17.1355C148.565 16.503 149.902 16.1867 151.384 16.1867C152.866 16.1867 154.203 16.503 155.396 17.1355C156.589 17.7681 157.529 18.6807 158.216 19.8735C158.902 21.0482 159.246 22.4126 159.246 23.9668C159.246 25.521 158.893 26.8945 158.188 28.0873C157.502 29.262 156.553 30.1656 155.342 30.7981C154.149 31.4307 152.812 31.7469 151.33 31.7469ZM151.33 27.7349C152.216 27.7349 152.966 27.4096 153.58 26.759C154.213 26.1084 154.529 25.1777 154.529 23.9668C154.529 22.756 154.222 21.8253 153.607 21.1747C153.011 20.5241 152.27 20.1988 151.384 20.1988C150.481 20.1988 149.731 20.5241 149.134 21.1747C148.538 21.8072 148.24 22.7379 148.24 23.9668C148.24 25.1777 148.529 26.1084 149.107 26.759C149.703 27.4096 150.444 27.7349 151.33 27.7349Z" fill="black"/>
<path d="M165.256 18.9247C165.798 18.0934 166.476 17.4428 167.289 16.9729C168.102 16.4849 169.006 16.241 170 16.241V21.1476H168.726C167.569 21.1476 166.702 21.4006 166.124 21.9066C165.545 22.3945 165.256 23.262 165.256 24.509V31.5301H160.621V16.4036H165.256V18.9247Z" fill="black"/>
<path d="M31.981 16.558L32.0002 16.4197C31.9947 16.4609 31.9874 16.5086 31.981 16.558Z" fill="#199647"/>
<path d="M58.5597 6.97216V14.8161C58.2793 14.8161 58.0309 14.8161 57.7845 14.8143C55.8409 14.8115 53.8983 14.7978 51.9566 14.8161C51.6249 14.8198 51.2639 14.9049 50.9679 15.0542C47.5262 16.7924 43.8049 17.4234 40.0297 17.4417C37.77 17.4527 35.5085 16.8327 33.2433 16.5232C32.8017 16.4637 32.2784 16.1285 31.955 16.743L31.9458 16.808C31.944 16.8135 31.9422 16.819 31.9422 16.8263L31.9174 16.9994C31.9119 17.0315 31.9082 17.0663 31.9028 17.1011L31.8872 17.2073C31.6856 18.5865 31.3475 20.9164 31.1917 21.9915C31.1779 22.0959 31.1642 22.1884 31.1532 22.2681C31.1477 22.3066 31.1422 22.3423 31.1376 22.3743V22.3826C31.134 22.3991 31.1321 22.4165 31.1294 22.4302L31.1239 22.4714C31.0387 23.0667 30.9544 23.6675 30.8618 24.3232C31.8881 24.4083 32.8713 24.4679 33.8481 24.5759C35.6652 24.7774 37.4704 25.0393 39.1546 25.8114C40.8324 26.5816 41.3125 26.9131 41.0596 29.296C40.7472 32.2422 39.6375 34.9668 38.4967 37.6721C38.3995 37.901 38.3033 38.1291 38.1228 38.5577C40.1552 38.0256 42.0575 37.7005 43.7646 39.0715C40.7847 40.3225 37.7737 41.5863 34.7003 42.8767C34.6435 42.6614 34.6023 42.4993 34.5482 42.296C34.3658 42.3116 34.1771 42.3281 33.8811 42.3546C34.0442 41.0881 34.2128 39.8829 34.3475 38.6731C34.5839 36.563 34.7709 34.4484 35.0421 32.3439C35.1072 31.842 35.4169 31.3713 35.5791 30.972C35.4581 30.9161 35.2739 30.8099 35.0751 30.7458C34.9505 30.7055 34.8048 30.7156 34.6682 30.7247C31.2778 30.9555 27.8874 31.1817 24.4988 31.4363C24.2047 31.4592 23.873 31.6076 23.6457 31.7999C21.1185 33.9282 18.6242 36.0932 16.0833 38.206C15.5289 38.6667 14.8682 39.0495 14.1938 39.3059C10.8968 40.5642 7.58247 41.7795 4.26261 42.9765C3.76963 43.1532 3.65325 43.406 3.67066 43.8877C3.72106 45.2715 3.68899 46.6617 3.76413 48.0464C3.79895 48.6756 3.59003 49.0438 3.03381 49.2837C2.69935 49.4266 2.38689 49.6189 2.01211 49.8158L1.33586 49.9999L1.19658 49.3386L0.448851 43.8401L0.280247 42.6056V42.601C0.173037 41.8748 0.0768214 41.1467 0.00168245 40.4168C-0.0212258 40.2061 0.212439 39.8636 0.417696 39.7556C1.33494 39.2738 2.28701 38.8581 3.22441 38.4121C3.4874 38.2875 3.74305 38.1446 3.97488 37.8369L9.34091 35.5547C9.52142 35.4549 9.71019 35.3688 9.89712 35.2791C9.91269 35.2708 11.3797 34.5574 11.4109 34.5638C11.4109 34.5638 11.4109 34.5644 11.4109 34.5656C11.9414 34.2836 12.4509 33.9539 12.6379 33.1993L13.0969 32.5939C13.928 31.7752 14.0893 30.3089 14.9415 29.2384L16.009 27.1961C16.0466 26.9351 16.0686 26.6054 15.9449 26.3984C15.7726 26.1108 15.593 25.8279 15.407 25.5485C14.8792 24.76 14.6978 23.7893 14.8865 22.8597C17.1205 19.6892 19.3289 16.4985 21.54 13.3114C21.562 13.2794 21.5547 13.2253 21.573 13.1072C20.5284 12.4478 19.4581 11.7738 18.3878 11.0997C18.134 10.9395 17.8646 10.7993 17.6273 10.6189C17.2094 10.2993 16.842 10.3066 16.3673 10.5713C13.9748 11.9057 11.7243 13.4112 9.73951 15.2667C9.91361 15.6477 9.95576 16.0543 9.72485 16.5012C9.63596 16.6743 9.60022 16.8749 9.53975 17.0635C9.48752 17.2275 9.41879 17.3721 9.2117 17.3776C9.05776 17.3813 9.03027 17.5205 8.97254 17.6203C8.84609 17.8401 8.73246 18.07 8.49972 18.1991C8.37326 18.2687 8.14051 18.331 8.1286 18.1854C8.10203 17.8658 7.78773 17.7293 7.65669 17.4729C7.65486 17.4701 7.65303 17.4665 7.6512 17.4628C7.61729 17.3941 7.59713 17.3163 7.59896 17.2247C7.60171 17.026 7.34972 16.8492 7.25076 16.6313C7.1857 16.4884 7.15271 16.3757 7.19578 16.232C7.3653 15.6522 7.66128 15.154 8.06446 14.7264L14.4018 7.27163C14.9195 6.61408 15.5454 6.59484 16.3545 6.77801C20.8802 7.8028 25.4271 8.73327 29.9546 9.75257C30.7051 9.92108 31.4162 10.3231 32.1043 10.6922C33.6108 11.4981 35.0458 12.4579 36.5989 13.1512C37.7141 13.6484 38.964 14.0139 40.1735 14.088C42.2389 14.2144 44.3208 14.0624 46.3954 14.0239C46.4834 14.0239 46.5695 13.9836 46.739 13.9424V12.7839C46.739 10.9111 46.7528 9.03824 46.7299 7.16631C46.7244 6.68459 46.8719 6.52524 47.3594 6.52799C50.6664 6.54356 53.9753 6.51975 57.2823 6.5518C57.6946 6.55546 58.1042 6.81464 58.5606 6.97216H58.5597Z" fill="#199647"/>
<path d="M31.3826 3.43268C30.535 3.07184 27.7786 2.08093 26.9842 1.74208C27.0034 1.66882 27.0978 1.25853 27.1171 1.18527C27.7686 1.30707 30.3911 2.04247 31.0289 2.21647C31.5109 2.34835 31.8847 2.3511 32.1239 1.81809C32.3062 1.89869 32.3896 2.30714 32.6526 2.42345C32.5115 2.18717 32.4254 2.04247 32.2751 1.78879C33.1813 1.19717 34.0564 0.605556 34.9581 0.0588151C35.1129 -0.0364296 35.4071 -0.00437664 35.5958 0.0725518C37.5165 0.849162 39.2575 1.93532 40.8372 3.266C41.1222 3.50502 41.3128 3.92996 41.4081 4.30453C41.6885 5.41266 41.4851 6.50615 41.1479 7.57582C41.1039 7.71502 40.9509 7.95405 40.9124 7.94214C40.4441 7.79561 40.4982 8.19582 40.413 8.41104C39.4032 10.9808 36.8531 12.2382 34.2809 11.3114C31.3111 10.2408 29.9192 7.95039 30.6367 5.14158C30.7824 4.5747 31.1058 4.0536 31.3826 3.43268Z" fill="#199647"/>
<path d="M8.63231 14.0226C8.62315 14.0345 8.61398 14.0474 8.60482 14.0593H8.58008C8.58649 14.0364 8.59199 14.0134 8.59749 13.9896L8.63231 14.0226Z" fill="#199647"/>
<path d="M7.655 17.4735C7.644 17.4854 7.63392 17.4982 7.62384 17.5101C7.63209 17.4945 7.64125 17.479 7.6495 17.4634C7.65133 17.467 7.65316 17.4707 7.655 17.4735Z" fill="#199647"/>
</svg>
