<svg width="41" height="40" viewBox="0 0 41 40" fill="none" xmlns="http://www.w3.org/2000/svg">
<path d="M17.134 15.5556C16.9328 16.0658 16.8267 16.6134 16.8267 17.1717C16.8267 18.3505 17.2997 19.4809 18.1417 20.3144C18.9837 21.1479 20.1257 21.6162 21.3165 21.6162C21.9683 21.6162 22.6055 21.4759 23.1869 21.2121M19.446 13.1313C20.0274 12.8676 20.6646 12.7273 21.3165 12.7273C22.5072 12.7273 23.6492 13.1955 24.4912 14.029C25.3332 14.8625 25.8063 15.993 25.8063 17.1717C25.8063 17.8806 25.6352 18.572 25.3156 19.1919" stroke="#9CA3AF" stroke-width="2" stroke-linecap="round" stroke-linejoin="round"/>
<path d="M12.2935 10.5623C10.8722 12.4636 10.0918 14.7778 10.0918 17.1717C10.0918 27.7525 21.3163 33.8384 21.3163 33.8384C21.3163 33.8384 25.7744 31.4212 29.0714 26.9852M14.3775 8.43794C16.3456 6.90571 18.7869 6.06061 21.3163 6.06061C24.2932 6.06061 27.1482 7.23124 29.2532 9.31498C31.3582 11.3987 32.5408 14.2249 32.5408 17.1717C32.5408 19.9051 31.7917 22.3385 30.6806 24.4444" stroke="#9CA3AF" stroke-width="2" stroke-linecap="round" stroke-linejoin="round"/>
<path d="M8.66309 6.46465L33.9692 31.5151" stroke="#9CA3AF" stroke-width="2" stroke-linecap="round" stroke-linejoin="round"/>
</svg>
