<svg width="32" height="33" viewBox="0 0 32 33" fill="none" xmlns="http://www.w3.org/2000/svg">
<path d="M6.66667 5.83331H12L14.6667 12.5L11.3333 14.5C12.7613 17.3954 15.1046 19.7387 18 21.1666L20 17.8333L26.6667 20.5V25.8333C26.6667 26.5406 26.3857 27.2188 25.8856 27.7189C25.3855 28.219 24.7072 28.5 24 28.5C18.799 28.1839 13.8935 25.9753 10.2091 22.2909C6.52467 18.6064 4.31607 13.701 4 8.49998C4 7.79274 4.28095 7.11446 4.78105 6.61436C5.28115 6.11426 5.95942 5.83331 6.66667 5.83331Z" stroke="#00031A" stroke-width="1.5" stroke-linecap="round" stroke-linejoin="round"/>
<path d="M20 12.5L26.6667 5.83331" stroke="#00031A" stroke-width="1.5" stroke-linecap="round" stroke-linejoin="round"/>
<path d="M21.334 5.83331H26.6673V11.1666" stroke="#00031A" stroke-width="1.5" stroke-linecap="round" stroke-linejoin="round"/>
</svg>
